<?xml version="1.0" encoding="UTF-8"?>
<!--Generator: Apple Native CoreSVG 175.5-->
<!DOCTYPE svg
PUBLIC "-//W3C//DTD SVG 1.1//EN"
       "http://www.w3.org/Graphics/SVG/1.1/DTD/svg11.dtd">
<svg version="1.1" xmlns="http://www.w3.org/2000/svg" xmlns:xlink="http://www.w3.org/1999/xlink" width="510" height="510.25">
 <g>
  <rect height="510.25" opacity="0" width="510" x="0" y="0"/>
  <path d="M255 510C394.5 510 510 394.25 510 255C510 115.5 394.25 0 254.75 0C115.5 0 0 115.5 0 255C0 394.25 115.75 510 255 510ZM255 467.5C137 467.5 42.75 373 42.75 255C42.75 137 136.75 42.5 254.75 42.5C372.75 42.5 467.5 137 467.5 255C467.5 373 373 467.5 255 467.5ZM184.25 352.5L208.75 352.5C221.25 352.5 227 345.75 227 336L227 173.5C227 164 221.25 157.25 208.75 157.25L184.25 157.25C172 157.25 166.25 164 166.25 173.5L166.25 336C166.25 345.75 172 352.5 184.25 352.5ZM301.25 352.5L325.75 352.5C337.75 352.5 343.5 345.75 343.5 336L343.5 173.5C343.5 164 337.75 157.25 325.75 157.25L301.25 157.25C288.75 157.25 283 164 283 173.5L283 336C283 345.75 288.75 352.5 301.25 352.5Z" fill="#ff2d55"/>
 </g>
</svg>
